<?xml version="1.0" standalone="no"?><!DOCTYPE svg PUBLIC "-//W3C//DTD SVG 1.1//EN" "http://www.w3.org/Graphics/SVG/1.1/DTD/svg11.dtd"><svg class="icon" height="512" viewBox="0 0 1024 1024" version="1.1" xmlns="http://www.w3.org/2000/svg"><path d="M671.248957 774.257006c-144.841829 0-262.255982-117.415177-262.255982-262.255983 0-144.842853 117.414153-262.289752 262.255982-262.289751S933.50494 367.158171 933.50494 512.001023c0 144.840806-117.414153 262.255982-262.255983 262.255983z m0-468.336548c-113.804952 0-206.079542 92.27459-206.079542 206.079542 0 113.803929 92.27459 206.046796 206.079542 206.046796s206.079542-92.242867 206.079542-206.046796c0-113.804952-92.27459-206.079542-206.079542-206.079542z m93.660147 168.595836c-10.344602 0-18.72548 8.411577-18.72548 18.757203h-37.482683c0-31.0379 25.171286-56.209186 56.208163-56.209187 31.0379 0 56.209186 25.172309 56.209186 56.209187h-37.483706c0-10.345626-8.378831-18.757203-18.72548-18.757203z m-187.321317 0c-10.345626 0-18.758226 8.411577-18.758225 18.757203h-37.449937c0-31.0379 25.171286-56.209186 56.208162-56.209187 31.0379 0 56.177464 25.172309 56.177464 56.209187h-37.45096c0-10.345626-8.379854-18.757203-18.726504-18.757203z m93.66117 131.143852c20.691251 0 37.451984-16.758686 37.451984-37.45096h37.482683c0 41.383526-33.55114 74.902944-74.934667 74.902944-41.384549 0-74.934666-33.520441-74.934666-74.902944h37.45096c0 20.692275 16.792455 37.45096 37.483706 37.45096zM390.234749 830.465169H202.172559c-16.308431 0-16.017812-18.72548-0.547469-18.725481h188.610682c17.370623 0 17.596773 18.72548-0.001023 18.725481z m-37.451984-187.353039H202.912409c-10.345626 0-18.72548-8.379854-18.72548-18.72548 0-10.346649 8.379854-18.726503 18.72548-18.726504h149.870356c10.346649 0 18.726503 8.379854 18.726504 18.726504 0 10.345626-8.379854 18.72548-18.726504 18.72548z m0-262.255982H202.912409c-10.345626 0-18.72548-8.379854-18.72548-18.725481 0-10.346649 8.379854-18.726503 18.72548-18.726503h149.870356c10.346649 0 18.726503 8.379854 18.726504 18.726503 0 10.344602-8.379854 18.72548-18.726504 18.725481z m0 131.143852H202.912409c-10.345626 0-18.72548-8.379854-18.72548-18.726503 0-10.345626 8.379854-18.757203 18.72548-18.757203h149.870356c10.346649 0 18.726503 8.411577 18.726504 18.757203 0 10.346649-8.379854 18.726503-18.726504 18.726503z m74.934667 309.086567c0-5.157463 4.190439-9.346879 9.346878-9.346879 5.190209 0 9.379625 4.189416 9.379625 9.346879a9.366322 9.366322 0 0 1-9.379625 9.378602c-5.15644 0-9.346879-4.189416-9.346878-9.378602z m355.917152-627.551736c0-41.383526-33.55114-74.936713-74.933643-74.936713H221.638913c-41.383526 0-74.93569 33.553187-74.93569 74.936713v636.930338c0 41.383526 33.552164 74.936713 74.93569 74.936713h487.062028c41.383526 0 74.933643-33.553187 74.933643-74.936713v-20.788466c19.756973-7.478322 38.579667-16.792455 56.210209-27.846208v67.360154c0 62.076824-50.311873 112.419396-112.38665 112.419395H202.912409c-62.074777 0-112.418372-50.342572-112.418372-112.419395V174.775582c0-62.074777 50.343595-112.385627 112.418372-112.385626h524.545734c62.074777 0 112.38665 50.310849 112.38665 112.385626v67.3929c-17.630542-11.0558-36.453237-20.36891-56.210209-27.846209v-20.787442z" /></svg>